<svg xmlns="http://www.w3.org/2000/svg" width="32" height="48" viewBox="0 0 32 48">
    <path fill="#FC034E" fill-rule="evenodd" d="M.8 42.557s.282 3.018 3.592 3.425l14.967 1.838c3.31.406 4.315-2.455 4.315-2.455l6.494-28.459-28.784-3.534L.8 42.557zm20.106-21.335c.095-.774.764-1.329 1.496-1.24.73.09 1.246.79 1.151 1.565l-3.904 20.856c-.095.773-.765 1.328-1.495 1.238-.731-.09-1.247-.79-1.152-1.563l3.904-20.856zm-7.278-.894c.095-.774.839-1.32 1.66-1.219.823.101 1.412.81 1.317 1.585l-2.58 21.018c-.096.774-.839 1.32-1.661 1.219-.823-.102-1.412-.811-1.317-1.585l2.58-21.018zm-6.445-2.214c.73.09 1.246.79 1.15 1.564L7.078 40.86c-.095.773-.765 1.328-1.496 1.238-.73-.09-1.246-.79-1.151-1.563l1.257-21.182c.095-.774.765-1.329 1.496-1.239zm22.72-7.179l-5.959-1.708.788-2.748c.597-2.082.122-2.936-1.922-3.522L14.682.627C12.808.088 11.71.77 11.187 2.594l-.788 2.747-5.96-1.708c-1.198-.344-2.432.3-2.758 1.438-.327 1.139.379 2.338 1.577 2.681l25.465 7.302c1.198.344 2.43-.3 2.757-1.438.326-1.138-.378-2.338-1.576-2.682z"/>
</svg>
